# xmcd CD database file
# Copyright (C) 1996 Ti Kan
#
# Track frame offsets:
#	150
#	13692
#	29627
#	49187
#	78042
#	96520
#	115833
#	130283
#	151405
#	169992
#	189010
#	206540
#	223433
#	239578
#	257563
#	273663
# Disc length: 3892 seconds
#
# Revision: 1
# Processed by: cddbd v1.4b42PL0 Copyright (c) Steve Scherf et al.
# Submitted via: CDCOPY 4.900
#
DISCID=e80f3210
DTITLE=陳慧嫻 - 32 Best of Songs Disc 2
DYEAR=1900
DGENRE=
TTITLE0=問題女人
TTITLE1=飄
TTITLE2=我寂寞
TTITLE3=戀戀風塵
TTITLE4=我心不死
TTITLE5=今天的愛人是誰
TTITLE6=Jealousy
TTITLE7=月亮
TTITLE8=紅茶館
TTITLE9=七分愛情三分騙
TTITLE10=人生何處不相逢
TTITLE11=去吧
TTITLE12=痴情意外
TTITLE13=逝去的諾言
TTITLE14=Joe Le Taxi
TTITLE15=多少柔情多少夢
EXTD=
EXTT0=
EXTT1=
EXTT2=
EXTT3=
EXTT4=
EXTT5=
EXTT6=
EXTT7=
EXTT8=
EXTT9=
EXTT10=
EXTT11=
EXTT12=
EXTT13=
EXTT14=
EXTT15=
PLAYORDER=
